<mxfile host="app.diagrams.net" agent="Mozilla/5.0 (Macintosh; Intel Mac OS X 10_15_7) AppleWebKit/537.36 (KHTML, like Gecko) Chrome/131.0.0.0 Safari/537.36" version="24.7.7">
  <diagram name="ページ1" id="ceFEk0MgnytwnFv6N15F">
    <mxGraphModel dx="1468" dy="880" grid="1" gridSize="10" guides="1" tooltips="1" connect="1" arrows="1" fold="1" page="1" pageScale="1" pageWidth="1169" pageHeight="827" math="0" shadow="0">
      <root>
        <mxCell id="0" />
        <mxCell id="1" parent="0" />
        <mxCell id="TKtJuP-ys_CpwEX0UQmt-32" value="" style="rounded=0;whiteSpace=wrap;html=1;fillColor=none;" vertex="1" parent="1">
          <mxGeometry x="20" y="420" width="800" height="360" as="geometry" />
        </mxCell>
        <mxCell id="TKtJuP-ys_CpwEX0UQmt-2" value="" style="html=1;outlineConnect=0;fillColor=#CCCCCC;strokeColor=#6881B3;gradientColor=none;gradientDirection=north;strokeWidth=2;shape=mxgraph.networks.cloud;fontColor=#ffffff;" vertex="1" parent="1">
          <mxGeometry x="540" y="40" width="90" height="50" as="geometry" />
        </mxCell>
        <mxCell id="TKtJuP-ys_CpwEX0UQmt-3" value="" style="fontColor=#0066CC;verticalAlign=top;verticalLabelPosition=bottom;labelPosition=center;align=center;html=1;outlineConnect=0;fillColor=#CCCCCC;strokeColor=#6881B3;gradientColor=none;gradientDirection=north;strokeWidth=2;shape=mxgraph.networks.router;" vertex="1" parent="1">
          <mxGeometry x="535" y="180" width="100" height="30" as="geometry" />
        </mxCell>
        <mxCell id="TKtJuP-ys_CpwEX0UQmt-4" value="Router" style="text;html=1;align=center;verticalAlign=middle;resizable=0;points=[];autosize=1;strokeColor=none;fillColor=none;fontSize=16;" vertex="1" parent="1">
          <mxGeometry x="485" y="150" width="70" height="30" as="geometry" />
        </mxCell>
        <mxCell id="TKtJuP-ys_CpwEX0UQmt-5" value="" style="endArrow=none;html=1;rounded=0;entryX=0.5;entryY=1;entryDx=0;entryDy=0;entryPerimeter=0;exitX=0.5;exitY=0;exitDx=0;exitDy=0;exitPerimeter=0;" edge="1" parent="1" source="TKtJuP-ys_CpwEX0UQmt-3" target="TKtJuP-ys_CpwEX0UQmt-2">
          <mxGeometry width="50" height="50" relative="1" as="geometry">
            <mxPoint x="600" y="360" as="sourcePoint" />
            <mxPoint x="650" y="310" as="targetPoint" />
          </mxGeometry>
        </mxCell>
        <mxCell id="TKtJuP-ys_CpwEX0UQmt-11" value="" style="endArrow=none;html=1;rounded=0;entryX=0.5;entryY=1;entryDx=0;entryDy=0;entryPerimeter=0;exitX=0.5;exitY=0;exitDx=0;exitDy=0;exitPerimeter=0;" edge="1" parent="1" source="TKtJuP-ys_CpwEX0UQmt-9" target="TKtJuP-ys_CpwEX0UQmt-7">
          <mxGeometry width="50" height="50" relative="1" as="geometry">
            <mxPoint x="585" y="290" as="sourcePoint" />
            <mxPoint x="585" y="200" as="targetPoint" />
          </mxGeometry>
        </mxCell>
        <mxCell id="TKtJuP-ys_CpwEX0UQmt-18" value="" style="fontColor=#0066CC;verticalAlign=top;verticalLabelPosition=bottom;labelPosition=center;align=center;html=1;outlineConnect=0;fillColor=#CCCCCC;strokeColor=#6881B3;gradientColor=none;gradientDirection=north;strokeWidth=2;shape=mxgraph.networks.server;aspect=fixed;" vertex="1" parent="1">
          <mxGeometry x="70" y="590" width="70" height="77.78" as="geometry" />
        </mxCell>
        <mxCell id="TKtJuP-ys_CpwEX0UQmt-19" value="" style="fontColor=#0066CC;verticalAlign=top;verticalLabelPosition=bottom;labelPosition=center;align=center;html=1;outlineConnect=0;fillColor=#CCCCCC;strokeColor=#6881B3;gradientColor=none;gradientDirection=north;strokeWidth=2;shape=mxgraph.networks.server;aspect=fixed;" vertex="1" parent="1">
          <mxGeometry x="180" y="590" width="70" height="77.78" as="geometry" />
        </mxCell>
        <mxCell id="TKtJuP-ys_CpwEX0UQmt-20" value="" style="fontColor=#0066CC;verticalAlign=top;verticalLabelPosition=bottom;labelPosition=center;align=center;html=1;outlineConnect=0;fillColor=#CCCCCC;strokeColor=#6881B3;gradientColor=none;gradientDirection=north;strokeWidth=2;shape=mxgraph.networks.server;aspect=fixed;" vertex="1" parent="1">
          <mxGeometry x="400" y="590" width="70" height="77.78" as="geometry" />
        </mxCell>
        <mxCell id="TKtJuP-ys_CpwEX0UQmt-21" value="" style="fontColor=#0066CC;verticalAlign=top;verticalLabelPosition=bottom;labelPosition=center;align=center;html=1;outlineConnect=0;fillColor=#CCCCCC;strokeColor=#6881B3;gradientColor=none;gradientDirection=north;strokeWidth=2;shape=mxgraph.networks.server;aspect=fixed;" vertex="1" parent="1">
          <mxGeometry x="290" y="590" width="70" height="77.78" as="geometry" />
        </mxCell>
        <mxCell id="TKtJuP-ys_CpwEX0UQmt-22" value="" style="fontColor=#0066CC;verticalAlign=top;verticalLabelPosition=bottom;labelPosition=center;align=center;html=1;outlineConnect=0;fillColor=#CCCCCC;strokeColor=#6881B3;gradientColor=none;gradientDirection=north;strokeWidth=2;shape=mxgraph.networks.server;aspect=fixed;" vertex="1" parent="1">
          <mxGeometry x="560" y="590" width="70" height="77.78" as="geometry" />
        </mxCell>
        <mxCell id="TKtJuP-ys_CpwEX0UQmt-9" value="" style="fontColor=#0066CC;verticalAlign=top;verticalLabelPosition=bottom;labelPosition=center;align=center;html=1;outlineConnect=0;fillColor=#CCCCCC;strokeColor=#6881B3;gradientColor=none;gradientDirection=north;strokeWidth=2;shape=mxgraph.networks.switch;" vertex="1" parent="1">
          <mxGeometry x="200" y="450" width="100" height="30" as="geometry" />
        </mxCell>
        <mxCell id="TKtJuP-ys_CpwEX0UQmt-10" value="Switch" style="text;html=1;align=center;verticalAlign=middle;resizable=0;points=[];autosize=1;strokeColor=none;fillColor=none;fontSize=16;" vertex="1" parent="1">
          <mxGeometry x="125" y="430" width="70" height="30" as="geometry" />
        </mxCell>
        <mxCell id="TKtJuP-ys_CpwEX0UQmt-7" value="" style="fontColor=#0066CC;verticalAlign=top;verticalLabelPosition=bottom;labelPosition=center;align=center;html=1;outlineConnect=0;fillColor=#CCCCCC;strokeColor=#6881B3;gradientColor=none;gradientDirection=north;strokeWidth=2;shape=mxgraph.networks.router;" vertex="1" parent="1">
          <mxGeometry x="200" y="370" width="100" height="30" as="geometry" />
        </mxCell>
        <mxCell id="TKtJuP-ys_CpwEX0UQmt-8" value="VLAN Router" style="text;html=1;align=center;verticalAlign=middle;resizable=0;points=[];autosize=1;strokeColor=none;fillColor=none;fontSize=16;" vertex="1" parent="1">
          <mxGeometry x="100" y="340" width="120" height="30" as="geometry" />
        </mxCell>
        <mxCell id="TKtJuP-ys_CpwEX0UQmt-23" value="" style="fontColor=#0066CC;verticalAlign=top;verticalLabelPosition=bottom;labelPosition=center;align=center;html=1;outlineConnect=0;fillColor=#CCCCCC;strokeColor=#6881B3;gradientColor=none;gradientDirection=north;strokeWidth=2;shape=mxgraph.networks.server;aspect=fixed;" vertex="1" parent="1">
          <mxGeometry x="670" y="590" width="70" height="77.78" as="geometry" />
        </mxCell>
        <mxCell id="TKtJuP-ys_CpwEX0UQmt-25" value="oc1-pi-1&lt;div&gt;192.168.5.11&lt;/div&gt;" style="text;html=1;align=center;verticalAlign=middle;resizable=0;points=[];autosize=1;strokeColor=none;fillColor=none;fontSize=16;" vertex="1" parent="1">
          <mxGeometry x="45" y="670" width="120" height="50" as="geometry" />
        </mxCell>
        <mxCell id="TKtJuP-ys_CpwEX0UQmt-26" value="oc1-pi-2&lt;div&gt;192.168.5.12&lt;/div&gt;" style="text;html=1;align=center;verticalAlign=middle;resizable=0;points=[];autosize=1;strokeColor=none;fillColor=none;fontSize=16;" vertex="1" parent="1">
          <mxGeometry x="155" y="670" width="120" height="50" as="geometry" />
        </mxCell>
        <mxCell id="TKtJuP-ys_CpwEX0UQmt-27" value="oc1-pi-3&lt;div&gt;192.168.5.13&lt;/div&gt;" style="text;html=1;align=center;verticalAlign=middle;resizable=0;points=[];autosize=1;strokeColor=none;fillColor=none;fontSize=16;" vertex="1" parent="1">
          <mxGeometry x="265" y="670" width="120" height="50" as="geometry" />
        </mxCell>
        <mxCell id="TKtJuP-ys_CpwEX0UQmt-28" value="oc1-pi-4&lt;div&gt;192.168.5.14&lt;/div&gt;" style="text;html=1;align=center;verticalAlign=middle;resizable=0;points=[];autosize=1;strokeColor=none;fillColor=none;fontSize=16;" vertex="1" parent="1">
          <mxGeometry x="375" y="670" width="120" height="50" as="geometry" />
        </mxCell>
        <mxCell id="TKtJuP-ys_CpwEX0UQmt-29" value="oc1-nuc-1&lt;div&gt;&lt;div&gt;192.168.5.21&lt;/div&gt;&lt;/div&gt;" style="text;html=1;align=center;verticalAlign=middle;resizable=0;points=[];autosize=1;strokeColor=none;fillColor=none;fontSize=16;" vertex="1" parent="1">
          <mxGeometry x="535" y="670" width="120" height="50" as="geometry" />
        </mxCell>
        <mxCell id="TKtJuP-ys_CpwEX0UQmt-30" value="oc1-nuc-2&lt;div&gt;&lt;div&gt;192.168.5.22&lt;/div&gt;&lt;/div&gt;" style="text;html=1;align=center;verticalAlign=middle;resizable=0;points=[];autosize=1;strokeColor=none;fillColor=none;fontSize=16;" vertex="1" parent="1">
          <mxGeometry x="645" y="670" width="120" height="50" as="geometry" />
        </mxCell>
        <mxCell id="TKtJuP-ys_CpwEX0UQmt-33" value="192.168.5.0/24" style="text;html=1;align=center;verticalAlign=middle;resizable=0;points=[];autosize=1;strokeColor=none;fillColor=none;fontSize=16;" vertex="1" parent="1">
          <mxGeometry x="670" y="430" width="130" height="30" as="geometry" />
        </mxCell>
        <mxCell id="TKtJuP-ys_CpwEX0UQmt-34" value="192.168.1.0/24" style="text;html=1;align=center;verticalAlign=middle;resizable=0;points=[];autosize=1;strokeColor=none;fillColor=none;fontSize=16;" vertex="1" parent="1">
          <mxGeometry x="520" y="220" width="130" height="30" as="geometry" />
        </mxCell>
        <mxCell id="TKtJuP-ys_CpwEX0UQmt-36" value="" style="fontColor=#0066CC;verticalAlign=top;verticalLabelPosition=bottom;labelPosition=center;align=center;html=1;outlineConnect=0;fillColor=#CCCCCC;strokeColor=#6881B3;gradientColor=none;gradientDirection=north;strokeWidth=2;shape=mxgraph.networks.wireless_hub;" vertex="1" parent="1">
          <mxGeometry x="200" y="230" width="100" height="85" as="geometry" />
        </mxCell>
        <mxCell id="TKtJuP-ys_CpwEX0UQmt-37" value="Wi-Fi Repeater" style="text;html=1;align=center;verticalAlign=middle;resizable=0;points=[];autosize=1;strokeColor=none;fillColor=none;fontSize=16;" vertex="1" parent="1">
          <mxGeometry x="95" y="240" width="130" height="30" as="geometry" />
        </mxCell>
        <mxCell id="TKtJuP-ys_CpwEX0UQmt-38" value="" style="endArrow=none;html=1;rounded=0;exitX=0.5;exitY=0;exitDx=0;exitDy=0;exitPerimeter=0;entryX=0.5;entryY=1;entryDx=0;entryDy=0;entryPerimeter=0;" edge="1" parent="1" source="TKtJuP-ys_CpwEX0UQmt-7" target="TKtJuP-ys_CpwEX0UQmt-36">
          <mxGeometry width="50" height="50" relative="1" as="geometry">
            <mxPoint x="260" y="460" as="sourcePoint" />
            <mxPoint x="250" y="320" as="targetPoint" />
          </mxGeometry>
        </mxCell>
        <mxCell id="TKtJuP-ys_CpwEX0UQmt-39" value="" style="endArrow=none;dashed=1;html=1;dashPattern=1 3;strokeWidth=2;rounded=0;entryX=0.5;entryY=1;entryDx=0;entryDy=0;entryPerimeter=0;exitX=0.55;exitY=0;exitDx=0;exitDy=0;exitPerimeter=0;" edge="1" parent="1" source="TKtJuP-ys_CpwEX0UQmt-36" target="TKtJuP-ys_CpwEX0UQmt-3">
          <mxGeometry width="50" height="50" relative="1" as="geometry">
            <mxPoint x="600" y="430" as="sourcePoint" />
            <mxPoint x="650" y="380" as="targetPoint" />
          </mxGeometry>
        </mxCell>
        <mxCell id="TKtJuP-ys_CpwEX0UQmt-40" value="" style="edgeStyle=elbowEdgeStyle;elbow=vertical;endArrow=none;html=1;curved=0;rounded=0;endSize=8;startSize=8;exitX=0.5;exitY=1;exitDx=0;exitDy=0;exitPerimeter=0;entryX=0.5;entryY=0;entryDx=0;entryDy=0;entryPerimeter=0;endFill=0;" edge="1" parent="1" source="TKtJuP-ys_CpwEX0UQmt-9" target="TKtJuP-ys_CpwEX0UQmt-18">
          <mxGeometry width="50" height="50" relative="1" as="geometry">
            <mxPoint x="660" y="520" as="sourcePoint" />
            <mxPoint x="710" y="470" as="targetPoint" />
          </mxGeometry>
        </mxCell>
        <mxCell id="TKtJuP-ys_CpwEX0UQmt-41" value="" style="edgeStyle=elbowEdgeStyle;elbow=vertical;endArrow=none;html=1;curved=0;rounded=0;endSize=8;startSize=8;exitX=0.5;exitY=1;exitDx=0;exitDy=0;exitPerimeter=0;entryX=0.5;entryY=0;entryDx=0;entryDy=0;entryPerimeter=0;endFill=0;" edge="1" parent="1" source="TKtJuP-ys_CpwEX0UQmt-9" target="TKtJuP-ys_CpwEX0UQmt-19">
          <mxGeometry width="50" height="50" relative="1" as="geometry">
            <mxPoint x="260" y="490" as="sourcePoint" />
            <mxPoint x="115" y="600" as="targetPoint" />
          </mxGeometry>
        </mxCell>
        <mxCell id="TKtJuP-ys_CpwEX0UQmt-42" value="" style="rounded=1;whiteSpace=wrap;html=1;strokeWidth=2;fillWeight=4;hachureGap=8;hachureAngle=45;fillColor=#1ba1e2;sketch=1;" vertex="1" parent="1">
          <mxGeometry x="820" y="240" width="200" height="90" as="geometry" />
        </mxCell>
        <mxCell id="TKtJuP-ys_CpwEX0UQmt-43" value="" style="endArrow=none;dashed=1;html=1;dashPattern=1 3;strokeWidth=2;rounded=0;entryX=0.5;entryY=0;entryDx=0;entryDy=0;exitX=0.5;exitY=1;exitDx=0;exitDy=0;exitPerimeter=0;" edge="1" parent="1" source="TKtJuP-ys_CpwEX0UQmt-3" target="TKtJuP-ys_CpwEX0UQmt-42">
          <mxGeometry width="50" height="50" relative="1" as="geometry">
            <mxPoint x="265" y="240" as="sourcePoint" />
            <mxPoint x="595" y="220" as="targetPoint" />
          </mxGeometry>
        </mxCell>
        <mxCell id="TKtJuP-ys_CpwEX0UQmt-44" value="" style="edgeStyle=elbowEdgeStyle;elbow=vertical;endArrow=none;html=1;curved=0;rounded=0;endSize=8;startSize=8;exitX=0.5;exitY=1;exitDx=0;exitDy=0;exitPerimeter=0;entryX=0.5;entryY=0;entryDx=0;entryDy=0;entryPerimeter=0;endFill=0;" edge="1" parent="1" source="TKtJuP-ys_CpwEX0UQmt-9" target="TKtJuP-ys_CpwEX0UQmt-21">
          <mxGeometry width="50" height="50" relative="1" as="geometry">
            <mxPoint x="260" y="490" as="sourcePoint" />
            <mxPoint x="225" y="600" as="targetPoint" />
          </mxGeometry>
        </mxCell>
        <mxCell id="TKtJuP-ys_CpwEX0UQmt-45" value="" style="edgeStyle=elbowEdgeStyle;elbow=vertical;endArrow=none;html=1;curved=0;rounded=0;endSize=8;startSize=8;exitX=0.5;exitY=1;exitDx=0;exitDy=0;exitPerimeter=0;entryX=0.5;entryY=0;entryDx=0;entryDy=0;entryPerimeter=0;endFill=0;" edge="1" parent="1" source="TKtJuP-ys_CpwEX0UQmt-9" target="TKtJuP-ys_CpwEX0UQmt-20">
          <mxGeometry width="50" height="50" relative="1" as="geometry">
            <mxPoint x="260" y="490" as="sourcePoint" />
            <mxPoint x="335" y="600" as="targetPoint" />
          </mxGeometry>
        </mxCell>
        <mxCell id="TKtJuP-ys_CpwEX0UQmt-46" value="" style="edgeStyle=elbowEdgeStyle;elbow=vertical;endArrow=none;html=1;curved=0;rounded=0;endSize=8;startSize=8;exitX=0.5;exitY=1;exitDx=0;exitDy=0;exitPerimeter=0;entryX=0.5;entryY=0;entryDx=0;entryDy=0;entryPerimeter=0;endFill=0;" edge="1" parent="1" source="TKtJuP-ys_CpwEX0UQmt-9" target="TKtJuP-ys_CpwEX0UQmt-22">
          <mxGeometry width="50" height="50" relative="1" as="geometry">
            <mxPoint x="260" y="490" as="sourcePoint" />
            <mxPoint x="445" y="600" as="targetPoint" />
          </mxGeometry>
        </mxCell>
        <mxCell id="TKtJuP-ys_CpwEX0UQmt-47" value="" style="edgeStyle=elbowEdgeStyle;elbow=vertical;endArrow=none;html=1;curved=0;rounded=0;endSize=8;startSize=8;exitX=0.5;exitY=1;exitDx=0;exitDy=0;exitPerimeter=0;entryX=0.5;entryY=0;entryDx=0;entryDy=0;entryPerimeter=0;endFill=0;" edge="1" parent="1" source="TKtJuP-ys_CpwEX0UQmt-9" target="TKtJuP-ys_CpwEX0UQmt-23">
          <mxGeometry width="50" height="50" relative="1" as="geometry">
            <mxPoint x="260" y="490" as="sourcePoint" />
            <mxPoint x="605" y="600" as="targetPoint" />
          </mxGeometry>
        </mxCell>
        <mxCell id="TKtJuP-ys_CpwEX0UQmt-48" value="Internet" style="text;html=1;align=center;verticalAlign=middle;resizable=0;points=[];autosize=1;strokeColor=none;fillColor=none;fontSize=16;" vertex="1" parent="1">
          <mxGeometry x="480" y="30" width="80" height="30" as="geometry" />
        </mxCell>
        <mxCell id="TKtJuP-ys_CpwEX0UQmt-49" value="192.168.1.x&lt;div&gt;（DHCP）&lt;/div&gt;" style="text;html=1;align=center;verticalAlign=middle;resizable=0;points=[];autosize=1;strokeColor=none;fillColor=none;fontSize=16;" vertex="1" parent="1">
          <mxGeometry x="300" y="275" width="110" height="50" as="geometry" />
        </mxCell>
        <mxCell id="TKtJuP-ys_CpwEX0UQmt-50" value="192.168.1.x&lt;div&gt;（DHCP）&lt;/div&gt;" style="text;html=1;align=center;verticalAlign=middle;resizable=0;points=[];autosize=1;strokeColor=none;fillColor=none;fontSize=16;" vertex="1" parent="1">
          <mxGeometry x="300" y="360" width="110" height="50" as="geometry" />
        </mxCell>
        <mxCell id="TKtJuP-ys_CpwEX0UQmt-51" value="oc1 region" style="text;html=1;align=center;verticalAlign=middle;resizable=0;points=[];autosize=1;strokeColor=#6c8ebf;fillColor=#dae8fc;fontSize=16;" vertex="1" parent="1">
          <mxGeometry x="20" y="420" width="100" height="30" as="geometry" />
        </mxCell>
      </root>
    </mxGraphModel>
  </diagram>
</mxfile>
